#!OML:ASF C:\ViconDB\ViconDB\414\Spring2016\041811\Spring2016.ASF
:FULLY-SPECIFIED
:DEGREES
169
root 7.01158 16.3022 -6.60242 -163.31 -8.2305 179.204
lowerback 26.5429 1.8687 -3.10139
upperback 3.96726 0.765778 0.304954
thorax -10.3829 0.138759 1.92674
lowerneck -18.1387 -2.84718 -10.0339
upperneck 7.73085 -3.36532 13.6658
head 5.71823 -1.03499 5.70209
rclavicle -1.65488e-014 7.30534e-015
rhumerus -37.4366 -8.7257 -83.8673
rradius 61.1757
rwrist 12.8135
rhand -39.499 -15.9068
rfingers 7.12502
rthumb -12.4848 -45.5138
lclavicle -1.65488e-014 7.30534e-015
lhumerus -31.3675 -6.9459 78.1796
lradius 55.2322
lwrist -1.21533
lhand -34.0751 14.1186
lfingers 7.12502
lthumb -7.25206 43.9743
rfemur -44.8153 -14.3711 24.3632
rtibia 64.026
rfoot 1.41653 -14.9452
rtoes -4.14492
lfemur -49.658 5.86011 -16.6719
ltibia 65.5374
lfoot -32.0343 -6.34309
ltoes -14.9785
170
root 7.0067 16.2842 -6.72994 -163.451 -8.27607 179.17
lowerback 26.135 1.8755 -3.22788
upperback 3.84609 0.792526 0.338378
thorax -10.3122 0.171692 2.02648
lowerneck -18.1397 -2.86237 -10.1276
upperneck 7.77626 -3.39829 13.8552
head 5.74333 -1.04204 5.77867
rclavicle 2.78299e-014 1.46107e-014
rhumerus -36.6158 -7.75168 -83.7213
rradius 63.2975
rwrist 11.1938
rhand -39.5772 -15.9065
rfingers 7.12502
rthumb -12.5602 -45.5089
lclavicle 2.78299e-014 1.46107e-014
lhumerus -30.7126 -7.73224 77.6942
lradius 58.1971
lwrist 0.144763
lhand -34.274 14.4428
lfingers 7.12502
lthumb -7.44404 44.2918
rfemur -44.1102 -14.449 24.2265
rtibia 64.0508
rfoot 1.78342 -15.1328
rtoes -4.0132
lfemur -48.9694 5.88508 -16.6048
ltibia 65.5552
lfoot -32.5195 -6.33551
ltoes -15.7902
171
root 7.00592 16.2775 -6.8546 -163.485 -8.48061 178.946
lowerback 25.6785 1.83742 -3.38009
upperback 3.67489 0.7575 0.297374
thorax -10.2671 0.180615 2.07808
lowerneck -18.1364 -2.96053 -10.1391
upperneck 7.83826 -3.5605 14.0098
head 5.7875 -1.11143 5.81588
rclavicle 1.2275e-014 -2.68359e-015
rhumerus -35.9004 -6.91713 -83.3923
rradius 65.6252
rwrist 10.4484
rhand -39.2286 -16.0858
rfingers 7.12502
rthumb -12.2241 -45.7086
lclavicle 1.2275e-014 -2.68359e-015
lhumerus -29.9422 -8.4814 77.0337
lradius 61.2133
lwrist 1.66244
lhand -34.2142 14.2372
lfingers 7.12502
lthumb -7.38637 44.0883
rfemur -43.4513 -14.6905 23.9661
rtibia 63.9635
rfoot 2.06813 -15.275
rtoes -3.93474
lfemur -48.3053 5.69583 -16.6933
ltibia 65.4015
lfoot -32.948 -6.25469
ltoes -15.6908
172
root 6.99958 16.2809 -6.9938 -163.62 -8.57371 178.941
lowerback 25.144 1.80263 -3.50771
upperback 3.53008 0.746629 0.362223
thorax -10.1521 0.199163 2.22602
lowerneck -18.2183 -2.94593 -10.1277
upperneck 7.98541 -3.56617 14.0934
head 5.84986 -1.10407 5.84428
rclavicle -1.07841e-014 -1.04362e-014
rhumerus -35.0014 -5.94587 -82.9972
rradius 68.0991
rwrist 9.35579
rhand -38.7236 -16.3598
rfingers 7.12502
rthumb -11.7371 -46.011
lclavicle -1.07841e-014 -1.04362e-014
lhumerus -29.1794 -8.96468 76.3108
lradius 64.3092
lwrist 2.9114
lhand -34.5053 13.9452
lfingers 7.12502
lthumb -7.66733 43.7862
rfemur -42.5017 -14.7529 23.8578
rtibia 63.6384
rfoot 2.42536 -15.359
rtoes -3.77675
lfemur -47.3807 5.48548 -16.4981
ltibia 65.0727
lfoot -33.3181 -6.26199
ltoes -15.8144
173
root 6.98733 16.299 -7.15377 -163.814 -8.47626 178.708
lowerback 24.4975 1.86347 -3.84351
upperback 3.40071 0.797062 0.312942
thorax -9.96459 0.249474 2.34607
lowerneck -18.2206 -3.02427 -10.2232
upperneck 8.16935 -3.68785 14.2415
head 5.92931 -1.15286 5.90046
rclavicle -1.72446e-014 1.42131e-014
rhumerus -34.285 -4.45375 -82.5444
rradius 70.8315
rwrist 7.57679
rhand -38.5554 -16.7278
rfingers 7.12502
rthumb -11.575 -46.3881
lclavicle -1.72446e-014 1.42131e-014
lhumerus -28.2259 -9.5369 75.3995
lradius 67.3532
lwrist 3.77989
lhand -33.9924 14.0234
lfingers 7.12502
lthumb -7.1722 43.8819
rfemur -41.299 -14.8673 23.3864
rtibia 63.1934
rfoot 2.62 -15.5856
rtoes -3.69256
lfemur -46.1173 5.42764 -16.6671
ltibia 64.5781
lfoot -33.7531 -6.08957
ltoes -16.0673
174
root 6.97686 16.3249 -7.3162 -164.01 -8.56231 178.421
lowerback 23.92 1.85334 -4.06308
upperback 3.2252 0.785665 0.229799
thorax -9.85689 0.269633 2.38181
lowerneck -18.0292 -3.00225 -10.3647
upperneck 8.1475 -3.70381 14.6242
head 5.90653 -1.15048 6.05057
rclavicle 1.44119e-014 2.98177e-016
rhumerus -33.452 -3.61619 -81.9731
rradius 73.5904
rwrist 6.4258
rhand -38.2081 -17.0529
rfingers 7.12502
rthumb -11.24 -46.7317
lclavicle 1.44119e-014 2.98177e-016
lhumerus -27.2164 -9.91976 74.3954
lradius 70.4277
lwrist 4.26598
lhand -33.4258 14.384
lfingers 7.12502
lthumb -6.62528 44.2604
rfemur -39.9514 -15.1188 22.9216
rtibia 62.5328
rfoot 2.80753 -15.7259
rtoes -3.29642
lfemur -44.7703 5.19936 -16.8486
ltibia 63.8857
lfoot -34.1133 -5.93909
ltoes -16.3474
175
root 6.96822 16.3318 -7.47298 -164.131 -8.7357 178.208
lowerback 23.2723 1.79868 -4.31691
upperback 2.9774 0.736646 0.262994
thorax -9.78962 0.282898 2.57772
lowerneck -17.7426 -2.95202 -10.2065
upperneck 8.13494 -3.64992 14.3701
head 5.83785 -1.14342 5.94211
rclavicle -2.50469e-014 1.89839e-014
rhumerus -32.649 -2.3732 -81.1382
rradius 76.3115
rwrist 5.35213
rhand -37.7563 -17.1599
rfingers 7.12502
rthumb -10.8042 -46.8621
lclavicle -2.50469e-014 1.89839e-014
lhumerus -26.1671 -10.2567 73.3621
lradius 73.1987
lwrist 4.07645
lhand -32.8822 14.9567
lfingers 7.12502
lthumb -6.1005 44.8489
rfemur -38.7444 -15.3789 22.6067
rtibia 61.8369
rfoot 2.93841 -15.7711
rtoes -3.11793
lfemur -43.5777 4.83318 -16.8961
ltibia 63.1385
lfoot -34.2772 -5.61387
ltoes -16.5252
176
root 6.94994 16.385 -7.65765 -164.232 -8.68869 178.02
lowerback 22.324 1.74952 -4.56642
upperback 2.76998 0.708708 0.243951
thorax -9.51322 0.299314 2.70647
lowerneck -17.6251 -2.97313 -10.4612
upperneck 8.35088 -3.69436 14.6726
head 5.90422 -1.15416 6.0865
rclavicle 1.95803e-014 4.57205e-015
rhumerus -31.6574 -1.18962 -80.3721
rradius 79.0053
rwrist 4.53462
rhand -37.4707 -17.3247
rfingers 7.12502
rthumb -10.5287 -47.041
lclavicle 1.95803e-014 4.57205e-015
lhumerus -24.9488 -10.2483 72.1993
lradius 75.8893
lwrist 4.79226
lhand -32.7396 14.906
lfingers 7.12502
lthumb -5.96286 44.8021
rfemur -37.1913 -15.4677 22.2099
rtibia 60.7224
rfoot 2.88701 -15.7933
rtoes -2.85164
lfemur -41.9864 4.62852 -17.0019
ltibia 62.0167
lfoot -34.4652 -5.30574
ltoes -16.8481
177
root 6.93427 16.4461 -7.85008 -164.525 -8.84223 177.982
lowerback 21.4609 1.64626 -4.62541
upperback 2.57872 0.654937 0.283677
thorax -9.25638 0.295212 2.7982
lowerneck -17.4531 -2.9293 -10.7353
upperneck 8.62213 -3.66386 15.0104
head 5.96975 -1.12855 6.25594
rclavicle 9.54166e-015 1.60022e-014
rhumerus -30.7233 -0.0620048 -79.5921
rradius 81.9224
rwrist 2.66056
rhand -37.5319 -17.5982
rfingers 7.12502
rthumb -10.5877 -47.3115
lclavicle 9.54166e-015 1.60022e-014
lhumerus -23.7072 -10.5901 70.9937
lradius 78.3146
lwrist 5.82131
lhand -33.4258 14.5254
lfingers 7.12502
lthumb -6.62525 44.4018
rfemur -35.2828 -15.6811 21.9743
rtibia 59.377
rfoot 2.91489 -15.7557
rtoes -2.77841
lfemur -40.1219 4.20193 -16.8627
ltibia 60.6859
lfoot -34.5358 -5.00709
ltoes -17.1382
178
root 6.90358 16.5271 -8.06388 -164.759 -8.7223 178.063
lowerback 20.3201 1.59582 -4.54915
upperback 2.35201 0.721986 0.307102
thorax -8.89194 0.344907 2.75965
lowerneck -17.3645 -2.90978 -10.8659
upperneck 9.27468 -3.69241 15.1161
head 6.16709 -1.13047 6.32488
rclavicle -8.15017e-015 3.97569e-016
rhumerus -29.7949 1.24207 -78.6523
rradius 84.62
rwrist 1.05985
rhand -37.7261 -17.8891
rfingers 7.12502
rthumb -10.7751 -47.5928
lclavicle -8.15017e-015 3.97569e-016
lhumerus -22.5026 -10.971 69.7763
lradius 80.7013
lwrist 7.0864
lhand -33.8374 14.469
lfingers 7.12502
lthumb -7.0226 44.3325
rfemur -33.2503 -15.6869 21.7499
rtibia 57.7582
rfoot 2.78061 -15.6673
rtoes -2.75435
lfemur -38.0347 3.89175 -16.7158
ltibia 59.0356
lfoot -34.5789 -4.57176
ltoes -17.4193
179
root 6.87632 16.6168 -8.28513 -165.052 -8.78415 177.914
lowerback 19.2628 1.47361 -4.64381
upperback 2.06353 0.649113 0.311153
thorax -8.62645 0.337329 2.83643
lowerneck -17.0709 -2.81698 -10.8603
upperneck 10.0303 -3.62964 14.9261
head 6.33904 -1.10819 6.28133
rclavicle -2.48481e-014 0
rhumerus -28.8579 2.35056 -77.7095
rradius 87.0879
rwrist 0.156889
rhand -37.3897 -17.8634
rfingers 7.12502
rthumb -10.4506 -47.5837
lclavicle -2.48481e-014 0
lhumerus -21.348 -11.1537 68.575
lradius 82.6265
lwrist 7.815
lhand -34.0245 14.3896
lfingers 7.12502
lthumb -7.20321 44.247
rfemur -30.9927 -15.8728 21.3352
rtibia 55.9768
rfoot 2.29971 -15.3937
rtoes -2.03695
lfemur -35.7405 3.30782 -16.744
ltibia 57.1546
lfoot -34.331 -4.14976
ltoes -18.042
180
root 6.85602 16.7256 -8.51267 -165.415 -8.60599 177.994
lowerback 18.2046 1.42553 -4.66901
upperback 1.77015 0.684901 0.316343
thorax -8.36897 0.377579 2.8461
lowerneck -16.9161 -2.66653 -11.2283
upperneck 11.0177 -3.55269 15.4254
head 6.62953 -1.04855 6.54884
rclavicle -3.25013e-014 -3.18055e-015
rhumerus -27.8196 3.54561 -76.8308
rradius 89.2896
rwrist -0.853073
rhand -37.518 -17.7071
rfingers 7.12502
rthumb -10.5743 -47.4211
lclavicle -3.25013e-014 -3.18055e-015
lhumerus -20.1387 -11.3144 67.1127
lradius 84.276
lwrist 8.21153
lhand -34.0014 14.1423
lfingers 7.12502
lthumb -7.18094 44.0004
rfemur -28.656 -15.7503 21.1024
rtibia 54.1047
rfoot 1.8787 -14.9991
rtoes -1.86756
lfemur -33.2838 3.15668 -16.5774
ltibia 55.0876
lfoot -33.8184 -3.88964
ltoes -18.5458
181
root 6.82811 16.8472 -8.75635 -165.751 -8.56833 177.903
lowerback 17.0058 1.31278 -4.79786
upperback 1.46673 0.624743 0.347921
thorax -8.03333 0.374049 2.96788
lowerneck -16.4886 -2.51237 -11.1783
upperneck 11.8912 -3.44597 15.1802
head 6.80748 -1.01915 6.48718
rclavicle 3.09607e-014 -1.21259e-014
rhumerus -26.7659 4.58601 -75.8368
rradius 91.2909
rwrist -1.33593
rhand -37.618 -17.6898
rfingers 7.12502
rthumb -10.6708 -47.3988
lclavicle 3.09607e-014 -1.21259e-014
lhumerus -18.9522 -11.303 65.8088
lradius 85.518
lwrist 8.17227
lhand -33.9604 13.9866
lfingers 7.12502
lthumb -7.14131 43.8461
rfemur -26.257 -15.7931 20.692
rtibia 52.1874
rfoot 1.27001 -14.3041
rtoes -1.8486
lfemur -30.6935 2.67337 -16.6023
ltibia 52.8595
lfoot -33.0587 -3.38084
ltoes -19.2369
